<svg xmlns="http://www.w3.org/2000/svg" viewBox="0 0 695 694" role="img" aria-label="Kalma rose logo">
  <title>Kalma rose logo</title>
  <path d="M 377.0 30.0 L 346.0 30.0 L 322.0 35.0 L 300.0 43.0 L 241.0 75.0 L 224.0 79.0 L 190.0 80.0 L 172.0 83.0 L 153.0 90.0 L 132.0 103.0 L 119.0 115.0 L 111.0 125.0 L 96.0 152.0 L 87.0 181.0 L 83.0 210.0 L 79.0 226.0 L 68.0 249.0 L 40.0 289.0 L 31.0 316.0 L 31.0 341.0 L 35.0 356.0 L 40.0 367.0 L 55.0 389.0 L 84.0 416.0 L 70.0 446.0 L 66.0 466.0 L 66.0 488.0 L 73.0 517.0 L 83.0 538.0 L 89.0 547.0 L 112.0 572.0 L 132.0 586.0 L 154.0 597.0 L 178.0 605.0 L 202.0 616.0 L 230.0 637.0 L 252.0 651.0 L 283.0 662.0 L 299.0 664.0 L 322.0 663.0 L 333.0 661.0 L 353.0 654.0 L 382.0 637.0 L 425.0 601.0 L 440.0 591.0 L 458.0 582.0 L 489.0 590.0 L 518.0 590.0 L 542.0 583.0 L 561.0 571.0 L 574.0 557.0 L 586.0 536.0 L 592.0 518.0 L 597.0 489.0 L 603.0 468.0 L 612.0 451.0 L 635.0 424.0 L 648.0 405.0 L 659.0 380.0 L 664.0 356.0 L 665.0 338.0 L 661.0 310.0 L 657.0 297.0 L 647.0 275.0 L 626.0 245.0 L 607.0 226.0 L 582.0 208.0 L 585.0 187.0 L 584.0 155.0 L 577.0 132.0 L 563.0 111.0 L 542.0 95.0 L 522.0 88.0 L 493.0 84.0 L 477.0 79.0 L 461.0 71.0 L 435.0 52.0 L 415.0 41.0 L 396.0 34.0 Z M 81.0 448.0 L 91.0 427.0 L 94.0 424.0 L 98.0 425.0 L 125.0 445.0 L 151.0 470.0 L 165.0 488.0 L 185.0 520.0 L 203.0 539.0 L 221.0 552.0 L 246.0 564.0 L 273.0 571.0 L 308.0 573.0 L 329.0 571.0 L 375.0 560.0 L 399.0 560.0 L 421.0 566.0 L 440.0 574.0 L 442.0 577.0 L 417.0 593.0 L 372.0 630.0 L 342.0 646.0 L 318.0 652.0 L 293.0 652.0 L 269.0 646.0 L 247.0 635.0 L 209.0 607.0 L 186.0 596.0 L 152.0 584.0 L 137.0 576.0 L 119.0 563.0 L 103.0 547.0 L 93.0 533.0 L 84.0 515.0 L 79.0 498.0 L 77.0 485.0 L 77.0 468.0 Z M 168.0 241.0 L 188.0 230.0 L 198.0 227.0 L 204.0 228.0 L 200.0 243.0 L 197.0 264.0 L 197.0 295.0 L 203.0 333.0 L 212.0 366.0 L 224.0 400.0 L 238.0 428.0 L 252.0 448.0 L 274.0 470.0 L 290.0 481.0 L 309.0 490.0 L 341.0 498.0 L 374.0 498.0 L 396.0 494.0 L 423.0 485.0 L 442.0 475.0 L 444.0 477.0 L 434.0 497.0 L 424.0 511.0 L 408.0 527.0 L 394.0 537.0 L 361.0 552.0 L 326.0 560.0 L 300.0 562.0 L 282.0 561.0 L 265.0 558.0 L 241.0 550.0 L 217.0 536.0 L 197.0 517.0 L 184.0 499.0 L 174.0 478.0 L 170.0 464.0 L 166.0 437.0 L 162.0 421.0 L 156.0 406.0 L 136.0 367.0 L 131.0 353.0 L 127.0 331.0 L 127.0 317.0 L 129.0 304.0 L 137.0 280.0 L 153.0 255.0 Z M 506.0 262.0 L 523.0 281.0 L 529.0 292.0 L 535.0 314.0 L 535.0 335.0 L 531.0 354.0 L 518.0 384.0 L 496.0 416.0 L 474.0 439.0 L 443.0 462.0 L 422.0 473.0 L 389.0 484.0 L 370.0 487.0 L 338.0 486.0 L 312.0 479.0 L 292.0 469.0 L 275.0 456.0 L 260.0 440.0 L 252.0 429.0 L 239.0 406.0 L 232.0 388.0 L 227.0 363.0 L 228.0 354.0 L 230.0 355.0 L 233.0 363.0 L 244.0 379.0 L 265.0 398.0 L 292.0 412.0 L 313.0 418.0 L 326.0 420.0 L 355.0 420.0 L 375.0 416.0 L 386.0 412.0 L 402.0 404.0 L 414.0 395.0 L 433.0 374.0 L 442.0 358.0 L 449.0 335.0 L 449.0 299.0 L 444.0 280.0 L 434.0 259.0 L 420.0 240.0 L 403.0 223.0 L 404.0 221.0 L 420.0 222.0 L 441.0 228.0 L 493.0 253.0 Z M 312.0 211.0 L 323.0 209.0 L 350.0 210.0 L 367.0 215.0 L 380.0 221.0 L 397.0 233.0 L 413.0 249.0 L 425.0 266.0 L 433.0 283.0 L 439.0 307.0 L 439.0 326.0 L 433.0 350.0 L 426.0 364.0 L 416.0 377.0 L 402.0 390.0 L 381.0 402.0 L 354.0 409.0 L 344.0 408.0 L 364.0 391.0 L 377.0 373.0 L 386.0 352.0 L 390.0 333.0 L 390.0 312.0 L 387.0 298.0 L 383.0 288.0 L 374.0 274.0 L 359.0 261.0 L 347.0 255.0 L 334.0 252.0 L 318.0 252.0 L 303.0 256.0 L 291.0 262.0 L 276.0 276.0 L 268.0 290.0 L 264.0 305.0 L 264.0 320.0 L 266.0 328.0 L 275.0 345.0 L 291.0 357.0 L 306.0 361.0 L 319.0 360.0 L 328.0 357.0 L 336.0 352.0 L 345.0 342.0 L 350.0 327.0 L 350.0 317.0 L 345.0 304.0 L 340.0 299.0 L 331.0 294.0 L 318.0 294.0 L 310.0 298.0 L 303.0 308.0 L 302.0 317.0 L 304.0 322.0 L 307.0 325.0 L 313.0 325.0 L 315.0 323.0 L 314.0 310.0 L 321.0 305.0 L 328.0 305.0 L 337.0 312.0 L 339.0 319.0 L 339.0 327.0 L 333.0 339.0 L 326.0 345.0 L 317.0 349.0 L 310.0 350.0 L 298.0 348.0 L 292.0 345.0 L 283.0 337.0 L 276.0 323.0 L 275.0 307.0 L 277.0 298.0 L 283.0 286.0 L 294.0 274.0 L 300.0 270.0 L 312.0 265.0 L 322.0 263.0 L 330.0 263.0 L 346.0 267.0 L 355.0 272.0 L 365.0 281.0 L 371.0 289.0 L 378.0 307.0 L 378.0 338.0 L 374.0 353.0 L 365.0 371.0 L 360.0 378.0 L 345.0 393.0 L 331.0 401.0 L 320.0 404.0 L 302.0 403.0 L 288.0 398.0 L 272.0 389.0 L 253.0 372.0 L 245.0 361.0 L 238.0 347.0 L 232.0 324.0 L 232.0 303.0 L 235.0 287.0 L 245.0 263.0 L 260.0 242.0 L 273.0 230.0 L 299.0 215.0 Z M 287.0 145.0 L 315.0 132.0 L 346.0 124.0 L 374.0 123.0 L 395.0 128.0 L 416.0 140.0 L 452.0 173.0 L 475.0 186.0 L 501.0 194.0 L 526.0 198.0 L 544.0 203.0 L 578.0 219.0 L 600.0 235.0 L 617.0 252.0 L 634.0 275.0 L 645.0 297.0 L 652.0 322.0 L 653.0 355.0 L 649.0 374.0 L 644.0 388.0 L 636.0 403.0 L 604.0 443.0 L 593.0 463.0 L 588.0 479.0 L 581.0 517.0 L 570.0 543.0 L 563.0 553.0 L 546.0 568.0 L 532.0 575.0 L 521.0 578.0 L 492.0 579.0 L 472.0 575.0 L 423.0 555.0 L 406.0 550.0 L 401.0 550.0 L 399.0 548.0 L 416.0 535.0 L 434.0 517.0 L 447.0 497.0 L 456.0 476.0 L 464.0 462.0 L 484.0 445.0 L 509.0 418.0 L 527.0 391.0 L 538.0 368.0 L 546.0 337.0 L 546.0 313.0 L 544.0 302.0 L 540.0 290.0 L 528.0 269.0 L 515.0 255.0 L 495.0 241.0 L 471.0 231.0 L 446.0 218.0 L 427.0 212.0 L 414.0 210.0 L 385.0 211.0 L 368.0 203.0 L 347.0 198.0 L 329.0 197.0 L 302.0 202.0 L 283.0 210.0 L 266.0 221.0 L 251.0 235.0 L 237.0 254.0 L 225.0 281.0 L 221.0 299.0 L 218.0 335.0 L 215.0 335.0 L 208.0 294.0 L 208.0 267.0 L 212.0 241.0 L 218.0 222.0 L 228.0 201.0 L 246.0 177.0 L 266.0 159.0 Z M 555.0 119.0 L 566.0 135.0 L 573.0 156.0 L 574.0 188.0 L 572.0 200.0 L 570.0 202.0 L 540.0 190.0 L 514.0 184.0 L 503.0 183.0 L 480.0 176.0 L 457.0 163.0 L 429.0 136.0 L 419.0 128.0 L 405.0 120.0 L 383.0 113.0 L 352.0 112.0 L 333.0 115.0 L 307.0 123.0 L 275.0 139.0 L 254.0 154.0 L 237.0 170.0 L 222.0 189.0 L 208.0 214.0 L 194.0 216.0 L 182.0 220.0 L 170.0 226.0 L 157.0 235.0 L 145.0 247.0 L 133.0 264.0 L 121.0 291.0 L 116.0 317.0 L 117.0 340.0 L 120.0 354.0 L 128.0 376.0 L 150.0 420.0 L 156.0 443.0 L 158.0 455.0 L 157.0 459.0 L 128.0 433.0 L 80.0 398.0 L 59.0 376.0 L 49.0 360.0 L 42.0 339.0 L 41.0 325.0 L 43.0 312.0 L 53.0 289.0 L 75.0 259.0 L 85.0 241.0 L 91.0 224.0 L 98.0 183.0 L 106.0 157.0 L 114.0 141.0 L 128.0 122.0 L 140.0 111.0 L 158.0 100.0 L 185.0 92.0 L 216.0 91.0 L 240.0 87.0 L 251.0 83.0 L 284.0 64.0 L 316.0 49.0 L 343.0 42.0 L 371.0 41.0 L 385.0 43.0 L 407.0 50.0 L 431.0 63.0 L 456.0 81.0 L 469.0 88.0 L 487.0 94.0 L 515.0 98.0 L 529.0 102.0 L 545.0 110.0 Z" fill="#D45F78" fill-rule="evenodd"/>
  <path d="M 409.0 552.0 L 396.0 549.0 L 397.0 547.0 L 406.0 542.0 L 402.0 542.0 L 404.0 543.0 L 400.0 544.0 L 399.0 542.0 L 387.0 541.0 L 378.0 546.0 L 365.0 551.0 L 355.0 560.0 L 354.0 563.0 L 357.0 564.0 L 376.0 559.0 L 395.0 559.0 L 401.0 555.0 Z M 378.0 546.0 L 381.0 544.0 L 383.0 545.0 L 381.0 547.0 Z M 215.0 203.0 L 211.0 213.0 L 209.0 215.0 L 200.0 216.0 L 198.0 218.0 L 196.0 223.0 L 201.0 225.0 L 195.0 227.0 L 203.0 225.0 L 206.0 226.0 L 203.0 237.0 L 206.0 244.0 L 208.0 263.0 L 211.0 241.0 L 221.0 213.0 L 219.0 207.0 Z M 210.0 241.0 L 211.0 244.0 L 209.0 248.0 L 208.0 244.0 Z" fill="#6A3440" fill-rule="evenodd"/>
</svg>
